<?xml version="1.0" encoding="UTF-8"?>
<svg width="819px" height="819px" viewBox="0 0 819 819" version="1.1" xmlns="http://www.w3.org/2000/svg" xmlns:xlink="http://www.w3.org/1999/xlink">
    <title>dozneal-favicon</title>
    <g id="dozneal-favicon" stroke="transparent" fill="transparent" transform="translate(0.375392, 0.375392)">
        <polygon id="star-12-inner" stroke="#979797" fill="#413BE0" points="409.124608 558.874608 259.374608 668.499217 279.437304 483.999608 109.624608 409.124608 279.437304 334.249608 259.374608 149.75 409.124608 259.374608 558.874608 149.75 538.811913 334.249608 708.624608 409.124608 538.811913 483.999608 558.874608 668.499217"></polygon>
        <polygon id="star-12-inner" fill="#38DB1B" transform="translate(409.124608, 409.124608) rotate(30.000000) translate(-409.124608, -409.124608) " points="409.124608 558.874608 259.374608 668.499217 279.437304 483.999608 109.624608 409.124608 279.437304 334.249608 259.374608 149.75 409.124608 259.374608 558.874608 149.75 538.811913 334.249608 708.624608 409.124608 538.811913 483.999608 558.874608 668.499217"></polygon>
        <path d="M409.124608,7.62460843 C630.866935,7.62460843 810.624608,187.382281 810.624608,409.124608 C810.624608,630.866935 630.866935,810.624608 409.124608,810.624608 C187.382281,810.624608 7.62460843,630.866935 7.62460843,409.124608 C7.62460843,187.382281 187.382281,7.62460843 409.124608,7.62460843 Z M409.124608,89.6246084 C232.669631,89.6246084 89.6246084,232.669631 89.6246084,409.124608 C89.6246084,585.579586 232.669631,728.624608 409.124608,728.624608 C585.579586,728.624608 728.624608,585.579586 728.624608,409.124608 C728.624608,232.669631 585.579586,89.6246084 409.124608,89.6246084 Z" id="doznenal-logo" fill="#7E469E"></path>
    </g>
</svg>