<?xml version="1.0" encoding="UTF-8"?>
<svg width="1916px" height="1916px" viewBox="0 0 1916 1916" version="1.1" xmlns="http://www.w3.org/2000/svg" xmlns:xlink="http://www.w3.org/1999/xlink">
    <title>hexages</title>
    <g id="Page-1" stroke="none" stroke-width="1" fill="none" fill-rule="evenodd">
        <g id="hexages" fill="#D8D8D8">
            <path d="M958,0 C1487.08879,0 1916,428.91121 1916,958 C1916,1487.08879 1487.08879,1916 958,1916 C428.91121,1916 0,1487.08879 0,958 C0,428.91121 428.91121,0 958,0 Z M958,124 C497.394519,124 124,497.394519 124,958 C124,1418.60548 497.394519,1792 958,1792 C1418.60548,1792 1792,1418.60548 1792,958 C1792,497.394519 1418.60548,124 958,124 Z" id="Combined-Shape"></path>
            <rect id="Rectangle" x="953" y="67" width="10" height="1782"></rect>
            <rect id="Rectangle" transform="translate(958.000000, 958.000000) rotate(12.000000) translate(-958.000000, -958.000000) " x="953" y="67" width="10" height="1782"></rect>
            <rect id="Rectangle" transform="translate(958.000000, 958.000000) rotate(18.000000) translate(-958.000000, -958.000000) " x="953" y="67" width="10" height="1782"></rect>
            <rect id="Rectangle" transform="translate(958.000000, 958.000000) rotate(6.000000) translate(-958.000000, -958.000000) " x="953" y="67" width="10" height="1782"></rect>
            <rect id="Rectangle" transform="translate(958.000000, 958.000000) rotate(24.000000) translate(-958.000000, -958.000000) " x="953" y="67" width="10" height="1782"></rect>
            <rect id="Rectangle" transform="translate(958.000000, 958.000000) rotate(30.000000) translate(-958.000000, -958.000000) " x="953" y="67" width="10" height="1782"></rect>
            <rect id="Rectangle" transform="translate(958.000000, 958.000000) rotate(36.000000) translate(-958.000000, -958.000000) " x="953" y="67" width="10" height="1782"></rect>
            <rect id="Rectangle" transform="translate(958.000000, 958.000000) rotate(42.000000) translate(-958.000000, -958.000000) " x="953" y="67" width="10" height="1782"></rect>
            <rect id="Rectangle" transform="translate(958.000000, 958.000000) rotate(48.000000) translate(-958.000000, -958.000000) " x="953" y="67" width="10" height="1782"></rect>
            <rect id="Rectangle" transform="translate(958.000000, 958.000000) rotate(54.000000) translate(-958.000000, -958.000000) " x="953" y="67" width="10" height="1782"></rect>
            <rect id="Rectangle" transform="translate(958.000000, 958.000000) rotate(60.000000) translate(-958.000000, -958.000000) " x="953" y="67" width="10" height="1782"></rect>
            <rect id="Rectangle" transform="translate(958.000000, 958.000000) rotate(66.000000) translate(-958.000000, -958.000000) " x="953" y="67" width="10" height="1782"></rect>
            <rect id="Rectangle" transform="translate(958.000000, 958.000000) rotate(72.000000) translate(-958.000000, -958.000000) " x="953" y="67" width="10" height="1782"></rect>
            <rect id="Rectangle" transform="translate(958.000000, 958.000000) rotate(78.000000) translate(-958.000000, -958.000000) " x="953" y="67" width="10" height="1782"></rect>
            <rect id="Rectangle" transform="translate(958.000000, 958.000000) rotate(84.000000) translate(-958.000000, -958.000000) " x="953" y="67" width="10" height="1782"></rect>
            <rect id="Rectangle" transform="translate(958.000000, 958.000000) rotate(90.000000) translate(-958.000000, -958.000000) " x="953" y="67" width="10" height="1782"></rect>
            <rect id="Rectangle" transform="translate(958.000000, 958.000000) rotate(96.000000) translate(-958.000000, -958.000000) " x="953" y="67" width="10" height="1782"></rect>
            <rect id="Rectangle" transform="translate(958.000000, 958.000000) rotate(102.000000) translate(-958.000000, -958.000000) " x="953" y="67" width="10" height="1782"></rect>
            <rect id="Rectangle" transform="translate(958.000000, 958.000000) rotate(108.000000) translate(-958.000000, -958.000000) " x="953" y="67" width="10" height="1782"></rect>
            <rect id="Rectangle" transform="translate(958.000000, 958.000000) rotate(114.000000) translate(-958.000000, -958.000000) " x="953" y="67" width="10" height="1782"></rect>
            <rect id="Rectangle" transform="translate(958.000000, 958.000000) rotate(120.000000) translate(-958.000000, -958.000000) " x="953" y="67" width="10" height="1782"></rect>
            <rect id="Rectangle" transform="translate(958.000000, 958.000000) rotate(126.000000) translate(-958.000000, -958.000000) " x="953" y="67" width="10" height="1782"></rect>
            <rect id="Rectangle" transform="translate(958.000000, 958.000000) rotate(132.000000) translate(-958.000000, -958.000000) " x="953" y="67" width="10" height="1782"></rect>
            <rect id="Rectangle" transform="translate(958.000000, 958.000000) rotate(138.000000) translate(-958.000000, -958.000000) " x="953" y="67" width="10" height="1782"></rect>
            <rect id="Rectangle" transform="translate(958.000000, 958.000000) rotate(144.000000) translate(-958.000000, -958.000000) " x="953" y="67" width="10" height="1782"></rect>
            <rect id="Rectangle" transform="translate(958.000000, 958.000000) rotate(150.000000) translate(-958.000000, -958.000000) " x="953" y="67" width="10" height="1782"></rect>
            <rect id="Rectangle" transform="translate(958.000000, 958.000000) rotate(156.000000) translate(-958.000000, -958.000000) " x="953" y="67" width="10" height="1782"></rect>
            <rect id="Rectangle" transform="translate(958.000000, 958.000000) rotate(162.000000) translate(-958.000000, -958.000000) " x="953" y="67" width="10" height="1782"></rect>
            <rect id="Rectangle" transform="translate(958.000000, 958.000000) rotate(168.000000) translate(-958.000000, -958.000000) " x="953" y="67" width="10" height="1782"></rect>
            <rect id="Rectangle" transform="translate(958.000000, 958.000000) rotate(174.000000) translate(-958.000000, -958.000000) " x="953" y="67" width="10" height="1782"></rect>
        </g>
    </g>
</svg>