<?xml version="1.0" encoding="UTF-8"?>
<svg width="2067px" height="2067px" viewBox="0 0 2067 2067" version="1.1" xmlns="http://www.w3.org/2000/svg" xmlns:xlink="http://www.w3.org/1999/xlink">
    <title>hexdec</title>
    <g id="Page-1" stroke="none" stroke-width="1" fill="none" fill-rule="evenodd">
        <path d="M1461.39068,1.70530257e-13 L1441.735,384.807 L1611.5655,455.153017 L1681.91,624.982 L2066.71851,605.327838 L1780.72,863.53 L1850.85926,1032.85926 L1780.419,1202.916 L2066.71851,1461.39068 L1681.505,1441.715 L1611.5655,1610.5655 L1441.686,1680.931 L1461.39068,2066.71851 L1202.531,1779.993 L1033.85926,1849.85926 L864.459,1779.691 L605.327838,2066.71851 L625.052,1680.525 L456.153017,1610.5655 L386.192,1441.665 L4.26325641e-14,1461.39068 L287.027,1202.259 L216.859257,1032.85926 L286.725,864.187 L4.26325641e-14,605.327838 L385.787,625.032 L456.153017,455.153017 L625.002,385.213 L605.327838,2.98427949e-13 L863.802,286.299 L1033.85926,215.859257 L1203.188,285.998 L1461.39068,1.70530257e-13 Z M1268,799 L799,799 L799,1268 L1268,1268 L1268,799 Z" id="hexdec" stroke="#979797" fill="#D8D8D8"></path>
    </g>
</svg>