<?xml version="1.0" encoding="UTF-8"?>
<svg width="819px" height="819px" viewBox="0 0 819 819" version="1.1" xmlns="http://www.w3.org/2000/svg" xmlns:xlink="http://www.w3.org/1999/xlink">
    <title>star-12-clock</title>
    <g id="Page-1" stroke="none" stroke-width="1" fill="none" fill-rule="evenodd">
        <g id="star-12-clock" fill="#D8D8D8">
            <polygon id="star-12-inner" points="409.5 559.25 259.75 668.874608 279.812696 484.375 110 409.5 279.812696 334.625 259.75 150.125392 409.5 259.75 559.25 150.125392 539.187304 334.625 709 409.5 539.187304 484.375 559.25 668.874608"></polygon>
            <polygon id="star-12-inner" transform="translate(409.500000, 409.500000) rotate(30.000000) translate(-409.500000, -409.500000) " points="409.5 559.25 259.75 668.874608 279.812696 484.375 110 409.5 279.812696 334.625 259.75 150.125392 409.5 259.75 559.25 150.125392 539.187304 334.625 709 409.5 539.187304 484.375 559.25 668.874608"></polygon>
            <path d="M409.5,8 C631.242327,8 811,187.757673 811,409.5 C811,631.242327 631.242327,811 409.5,811 C187.757673,811 8,631.242327 8,409.5 C8,187.757673 187.757673,8 409.5,8 Z M409.5,90 C233.045022,90 90,233.045022 90,409.5 C90,585.954978 233.045022,729 409.5,729 C585.954978,729 729,585.954978 729,409.5 C729,233.045022 585.954978,90 409.5,90 Z" id="Combined-Shape"></path>
        </g>
    </g>
</svg>