<?xml version="1.0" encoding="UTF-8"?>
<svg width="447px" height="469px" viewBox="0 0 447 469" version="1.1" xmlns="http://www.w3.org/2000/svg" xmlns:xlink="http://www.w3.org/1999/xlink">
    <title>star-10</title>
    <g id="Page-1" stroke="none" stroke-width="1" fill="none" fill-rule="evenodd">
        <path d="M223.5,351.75 L269.444247,375.905 L223.5,469 L177.554247,375.905 L223.5,351.75 Z M361.335642,44.7855148 L343.786247,147.106 L446.522753,162.035515 L372.182247,234.5 L446.522753,306.964485 L343.786247,321.893 L361.335642,424.214485 L269.444247,375.905 L292.417821,329.357243 L343.786247,321.893 L335.011377,270.732243 L372.182247,234.5 L335.011377,198.267757 L343.786247,147.106 L292.417821,139.642757 L269.444247,93.094 L361.335642,44.7855148 Z M85.6643583,44.7855148 L177.554247,93.094 L154.582179,139.642757 L103.213247,147.106 L111.988623,198.267757 L74.8172469,234.5 L111.988623,270.732243 L103.213247,321.893 L154.582179,329.357243 L177.554247,375.905 L85.6643583,424.214485 L103.213247,321.893 L0.477246929,306.964485 L74.8172469,234.5 L0.477246929,162.035515 L103.213247,147.106 L85.6643583,44.7855148 Z M223.5,0 L269.444247,93.094 L223.5,117.25 L177.554247,93.094 L223.5,0 Z" id="star-10" fill="#D8D8D8"></path>
    </g>
</svg>