<?xml version="1.0" encoding="UTF-8"?>
<svg width="498px" height="498px" viewBox="0 0 498 498" version="1.1" xmlns="http://www.w3.org/2000/svg" xmlns:xlink="http://www.w3.org/1999/xlink">
    <title>star-36</title>
    <g id="Page-1" stroke="none" stroke-width="1" fill="none" fill-rule="evenodd">
        <polygon id="star-36" fill="#D8D8D8" points="249 374 227.211064 498.048675 227.293978 372.100969 184.295239 490.481457 206.247482 366.461578 143.345435 475.576947 186.5 357.253175 105.605891 453.788011 168.651549 344.755555 72.2233047 425.776695 153.244445 329.348451 44.2119889 392.394109 140.746825 311.5 22.4230532 354.654565 131.538422 291.752518 7.51854343 313.704761 125.899031 270.706022 -0.0486745229 270.788936 124 249 -0.0486745229 227.211064 125.899031 227.293978 7.51854343 184.295239 131.538422 206.247482 22.4230532 143.345435 140.746825 186.5 44.2119889 105.605891 153.244445 168.651549 72.2233047 72.2233047 168.651549 153.244445 105.605891 44.2119889 186.5 140.746825 143.345435 22.4230532 206.247482 131.538422 184.295239 7.51854343 227.293978 125.899031 227.211064 -0.0486745229 249 124 270.788936 -0.0486745229 270.706022 125.899031 313.704761 7.51854343 291.752518 131.538422 354.654565 22.4230532 311.5 140.746825 392.394109 44.2119889 329.348451 153.244445 425.776695 72.2233047 344.755555 168.651549 453.788011 105.605891 357.253175 186.5 475.576947 143.345435 366.461578 206.247482 490.481457 184.295239 372.100969 227.293978 498.048675 227.211064 374 249 498.048675 270.788936 372.100969 270.706022 490.481457 313.704761 366.461578 291.752518 475.576947 354.654565 357.253175 311.5 453.788011 392.394109 344.755555 329.348451 425.776695 425.776695 329.348451 344.755555 392.394109 453.788011 311.5 357.253175 354.654565 475.576947 291.752518 366.461578 313.704761 490.481457 270.706022 372.100969 270.788936 498.048675"></polygon>
    </g>
</svg>