<?xml version="1.0" encoding="UTF-8"?>
<svg width="528px" height="526px" viewBox="0 0 528 526" version="1.1" xmlns="http://www.w3.org/2000/svg" xmlns:xlink="http://www.w3.org/1999/xlink">
    <title>star-20</title>
    <g id="Page-1" stroke="none" stroke-width="1" fill="none" fill-rule="evenodd">
        <polygon id="star-20" fill="#D8D8D8" points="264 395 236.404486 525.55378 236.555657 392.115483 182.419513 514.07892 210.310763 383.588 132 491.630707 186.412347 369.790243 87.3495199 459.190234 165.904883 351.32524 50.4195135 418.175307 149.684647 329 22.8239992 370.378474 138.46054 303.790243 5.76903341 317.888686 132.72311 276.797757 0 263 132.72311 249.202243 5.76903341 208.111314 138.46054 222.209757 22.8239992 155.621526 149.684647 197 50.4195135 107.824693 165.904883 174.67476 87.3495199 66.8097661 186.412347 156.209757 132 34.3692934 210.310763 142.412 182.419513 11.9210797 236.555657 133.884517 236.404486 0.446219623 264 131 291.595514 0.446219623 291.444343 133.884517 345.580487 11.9210797 317.689237 142.412 396 34.3692934 341.587653 156.209757 440.65048 66.8097661 362.095117 174.67476 477.580487 107.824693 378.315353 197 505.176001 155.621526 389.53946 222.209757 522.230967 208.111314 395.27689 249.202243 528 263 395.27689 276.797757 522.230967 317.888686 389.53946 303.790243 505.176001 370.378474 378.315353 329 477.580487 418.175307 362.095117 351.32524 440.65048 459.190234 341.587653 369.790243 396 491.630707 317.689237 383.588 345.580487 514.07892 291.444343 392.115483 291.595514 525.55378"></polygon>
    </g>
</svg>