<?xml version="1.0" encoding="UTF-8"?>
<svg width="507px" height="507px" viewBox="0 0 507 507" version="1.1" xmlns="http://www.w3.org/2000/svg" xmlns:xlink="http://www.w3.org/1999/xlink">
    <title>star=36</title>
    <g id="Page-1" stroke="none" stroke-width="1" fill="none" fill-rule="evenodd">
        <path d="M275.10152,0.88 L253.5,123.860856 L231.89848,0.88 L230.906019,0.966829071 L230.988,125.829856 L188.359331,8.46895819 L187.397025,8.72680714 L209.16,131.678856 L146.799448,23.503117 L145.896537,23.9241512 L188.68,141.229856 L108.481607,45.5256711 L107.665525,46.0970977 L170.168,154.190856 L74.5700769,73.8674763 L73.8656204,74.5719327 L154.189,170.169856 L46.0952418,107.667381 L45.5238152,108.483463 L141.228,188.681856 L23.9222953,145.898393 L23.5012611,146.801304 L131.677,209.161856 L8.72495126,187.398881 L8.46710231,188.361187 L125.828,230.989856 L0.964973192,230.907875 L0.878144121,231.900336 L123.859,253.501856 L0.878144121,275.103376 L0.964973192,276.095837 L125.828,276.012856 L8.46710231,318.642525 L8.72495126,319.60483 L131.677,297.840856 L23.5012611,360.202408 L23.9222953,361.105319 L141.228,318.320856 L45.5238152,398.520249 L46.0952418,399.336331 L154.189,336.832856 L73.8656204,432.431779 L74.5700769,433.136235 L170.168,352.811856 L107.665525,460.906614 L108.481607,461.478041 L188.68,365.772856 L145.896537,483.079561 L146.799448,483.500595 L209.16,375.323856 L187.397025,498.276905 L188.359331,498.534754 L230.988,381.172856 L230.906019,506.036883 L231.89848,506.123712 L253.5,383.141856 L275.10152,506.123712 L276.093981,506.036883 L276.011,381.172856 L318.640669,498.534754 L319.602975,498.276905 L297.839,375.323856 L360.200552,483.500595 L361.103463,483.079561 L318.319,365.772856 L398.518393,461.478041 L399.334475,460.906614 L336.831,352.811856 L432.429923,433.136235 L433.13438,432.431779 L352.81,336.832856 L460.904758,399.336331 L461.476185,398.520249 L365.771,318.320856 L483.077705,361.105319 L483.498739,360.202408 L375.322,297.840856 L498.275049,319.60483 L498.532898,318.642525 L381.171,276.012856 L506.035027,276.095837 L506.121856,275.103376 L383.14,253.501856 L506.121856,231.900336 L506.035027,230.907875 L381.171,230.989856 L498.532898,188.361187 L498.275049,187.398881 L375.322,209.161856 L483.498739,146.801304 L483.077705,145.898393 L365.771,188.681856 L461.476185,108.483463 L460.904758,107.667381 L352.81,170.169856 L433.13438,74.5719327 L432.429923,73.8674763 L336.831,154.190856 L399.334475,46.0970977 L398.518393,45.5256711 L318.319,141.229856 L361.103463,23.9241512 L360.200552,23.503117 L297.839,131.678856 L319.602975,8.72680714 L318.640669,8.46895819 L276.011,125.829856 L276.093981,0.966829071 L275.10152,0.88 Z M253.5,129.642032 L275.089,6.72785588 L275.008033,131.523741 L317.614,14.2208559 L295.862555,137.111694 L358.19,28.9908559 L315.429912,146.236102 L395.585,50.5828559 L333.11556,158.619726 L428.661,78.3398559 L348.38213,173.886296 L456.418,111.415856 L360.765754,191.571944 L478.01,148.810856 L369.890162,211.139301 L492.78,189.386856 L375.478115,231.993823 L500.273,231.911856 L377.359824,253.501856 L500.273,275.090856 L375.478115,275.009889 L492.78,317.615856 L369.890162,295.864411 L478.01,358.191856 L360.765754,315.431768 L456.418,395.586856 L348.38213,333.117416 L428.661,428.662856 L333.11556,348.383986 L395.585,456.419856 L315.429912,360.76761 L358.19,478.011856 L295.862555,369.892018 L317.614,492.781856 L275.008033,375.479971 L275.089,500.274856 L253.5,377.36168 L231.91,500.274856 L231.991967,375.479971 L189.385,492.781856 L211.137445,369.892018 L148.809,478.011856 L191.570088,360.76761 L111.414,456.419856 L173.88444,348.383986 L78.338,428.662856 L158.61787,333.117416 L50.581,395.586856 L146.234246,315.431768 L28.989,358.191856 L137.109838,295.864411 L14.219,317.615856 L131.521885,275.009889 L6.726,275.090856 L129.640176,253.501856 L6.726,231.911856 L131.521885,231.993823 L14.219,189.386856 L137.109838,211.139301 L28.989,148.810856 L146.234246,191.571944 L50.581,111.415856 L158.61787,173.886296 L78.338,78.3398559 L173.88444,158.619726 L111.414,50.5828559 L191.570088,146.236102 L148.809,28.9908559 L211.137445,137.111694 L189.385,14.2208559 L231.991967,131.523741 L231.91,6.72785588 L253.5,129.642032 Z" id="star=36" fill="#979797" fill-rule="nonzero"></path>
    </g>
</svg>