<?xml version="1.0" encoding="UTF-8"?>
<svg width="500px" height="498px" viewBox="0 0 500 498" version="1.1" xmlns="http://www.w3.org/2000/svg" xmlns:xlink="http://www.w3.org/1999/xlink">
    <title>star-30</title>
    <g id="Page-1" stroke="none" stroke-width="1" fill="none" fill-rule="evenodd">
        <polygon id="star-30" fill="#D8D8D8" points="250 374 223.867884 497.630474 224.011039 371.26845 172.745751 486.764129 199.15792 363.193182 125 465.506351 176.526843 350.127124 82.7173484 434.786206 157.106897 332.641326 47.7457514 395.946313 141.746825 311.5 21.6136356 350.684161 131.117935 287.627124 5.46309982 300.977923 125.684763 262.066058 0 249 125.684763 235.933942 5.46309982 197.022077 131.117935 210.372876 21.6136356 147.315839 141.746825 186.5 47.7457514 102.053687 157.106897 165.358674 82.7173484 63.2137936 176.526843 147.872876 125 32.4936491 199.15792 134.806818 172.745751 11.2358709 224.011039 126.73155 223.867884 0.369526158 250 124 276.132116 0.369526158 275.988961 126.73155 327.254249 11.2358709 300.84208 134.806818 375 32.4936491 323.473157 147.872876 417.282652 63.2137936 342.893103 165.358674 452.254249 102.053687 358.253175 186.5 478.386364 147.315839 368.882065 210.372876 494.5369 197.022077 374.315237 235.933942 500 249 374.315237 262.066058 494.5369 300.977923 368.882065 287.627124 478.386364 350.684161 358.253175 311.5 452.254249 395.946313 342.893103 332.641326 417.282652 434.786206 323.473157 350.127124 375 465.506351 300.84208 363.193182 327.254249 486.764129 275.988961 371.26845 276.132116 497.630474"></polygon>
    </g>
</svg>